<mxfile host="app.diagrams.net" agent="Mozilla/5.0 (X11; Linux x86_64) AppleWebKit/537.36 (KHTML, like Gecko) Chrome/133.0.0.0 Safari/537.36" version="26.0.16">
  <diagram name="Sida-1" id="kw0DRIxA1jp8g_zTXeKY">
    <mxGraphModel dx="2261" dy="714" grid="1" gridSize="10" guides="1" tooltips="1" connect="1" arrows="1" fold="1" page="1" pageScale="1" pageWidth="827" pageHeight="1169" math="0" shadow="0">
      <root>
        <mxCell id="0" />
        <mxCell id="1" parent="0" />
        <mxCell id="4VvXFu-i0m53zg2MDVyg-21" style="edgeStyle=orthogonalEdgeStyle;rounded=0;orthogonalLoop=1;jettySize=auto;html=1;exitX=1;exitY=0.5;exitDx=0;exitDy=0;entryX=0;entryY=0.5;entryDx=0;entryDy=0;" edge="1" parent="1" source="4VvXFu-i0m53zg2MDVyg-13" target="4VvXFu-i0m53zg2MDVyg-20">
          <mxGeometry relative="1" as="geometry" />
        </mxCell>
        <mxCell id="4VvXFu-i0m53zg2MDVyg-13" value="" style="swimlane;startSize=0;" vertex="1" parent="1">
          <mxGeometry x="-170" y="1290" width="260" height="200" as="geometry" />
        </mxCell>
        <mxCell id="4VvXFu-i0m53zg2MDVyg-4" value="Här börjar det!" style="verticalLabelPosition=bottom;verticalAlign=top;html=1;shape=card;whiteSpace=wrap;size=20;arcSize=12;" vertex="1" parent="4VvXFu-i0m53zg2MDVyg-13">
          <mxGeometry x="10" y="70" width="100" height="60" as="geometry" />
        </mxCell>
        <mxCell id="4VvXFu-i0m53zg2MDVyg-5" value="Vilken eller vilka sensorer" style="text;html=1;align=center;verticalAlign=middle;whiteSpace=wrap;rounded=0;" vertex="1" parent="4VvXFu-i0m53zg2MDVyg-13">
          <mxGeometry x="10" y="70" width="100" height="60" as="geometry" />
        </mxCell>
        <mxCell id="4VvXFu-i0m53zg2MDVyg-7" value="" style="strokeWidth=2;html=1;shape=mxgraph.flowchart.annotation_2;align=left;labelPosition=right;pointerEvents=1;" vertex="1" parent="4VvXFu-i0m53zg2MDVyg-13">
          <mxGeometry x="110" y="50" width="50" height="100" as="geometry" />
        </mxCell>
        <mxCell id="4VvXFu-i0m53zg2MDVyg-9" value="" style="strokeWidth=2;html=1;shape=mxgraph.flowchart.decision;whiteSpace=wrap;" vertex="1" parent="4VvXFu-i0m53zg2MDVyg-13">
          <mxGeometry x="160" width="100" height="100" as="geometry" />
        </mxCell>
        <mxCell id="4VvXFu-i0m53zg2MDVyg-10" value="" style="strokeWidth=2;html=1;shape=mxgraph.flowchart.decision;whiteSpace=wrap;" vertex="1" parent="4VvXFu-i0m53zg2MDVyg-13">
          <mxGeometry x="160" y="100" width="100" height="100" as="geometry" />
        </mxCell>
        <mxCell id="4VvXFu-i0m53zg2MDVyg-11" value="Tilt-sensor" style="text;html=1;align=center;verticalAlign=middle;whiteSpace=wrap;rounded=0;" vertex="1" parent="4VvXFu-i0m53zg2MDVyg-13">
          <mxGeometry x="180" y="35" width="60" height="30" as="geometry" />
        </mxCell>
        <mxCell id="4VvXFu-i0m53zg2MDVyg-12" value="Ultrasonic-sensor" style="text;html=1;align=center;verticalAlign=middle;whiteSpace=wrap;rounded=0;" vertex="1" parent="4VvXFu-i0m53zg2MDVyg-13">
          <mxGeometry x="180" y="135" width="60" height="30" as="geometry" />
        </mxCell>
        <mxCell id="4VvXFu-i0m53zg2MDVyg-19" value="&lt;font style=&quot;font-size: 18px;&quot;&gt;&lt;u&gt;&lt;b&gt;Data insamling&lt;/b&gt;&lt;/u&gt;&lt;/font&gt;" style="text;html=1;align=center;verticalAlign=middle;whiteSpace=wrap;rounded=0;" vertex="1" parent="1">
          <mxGeometry x="-160" y="1250" width="150" height="30" as="geometry" />
        </mxCell>
        <mxCell id="4VvXFu-i0m53zg2MDVyg-30" style="edgeStyle=orthogonalEdgeStyle;rounded=0;orthogonalLoop=1;jettySize=auto;html=1;exitX=1;exitY=0.5;exitDx=0;exitDy=0;entryX=0;entryY=0.5;entryDx=0;entryDy=0;" edge="1" parent="1" source="4VvXFu-i0m53zg2MDVyg-20" target="4VvXFu-i0m53zg2MDVyg-22">
          <mxGeometry relative="1" as="geometry" />
        </mxCell>
        <mxCell id="4VvXFu-i0m53zg2MDVyg-20" value="Raspberrypi" style="swimlane;whiteSpace=wrap;html=1;" vertex="1" parent="1">
          <mxGeometry x="170" y="1290" width="200" height="200" as="geometry" />
        </mxCell>
        <mxCell id="4VvXFu-i0m53zg2MDVyg-22" value="Thingspeak" style="swimlane;horizontal=0;whiteSpace=wrap;html=1;" vertex="1" parent="1">
          <mxGeometry x="450" y="1305" width="260" height="170" as="geometry" />
        </mxCell>
        <mxCell id="4VvXFu-i0m53zg2MDVyg-24" value="" style="shape=image;verticalLabelPosition=bottom;labelBackgroundColor=default;verticalAlign=top;aspect=fixed;imageAspect=0;image=data:image/png,iVBORw0KGgoAAAANSUhEUgAAAgoAAAFnCAIAAABIIfYbAAAAA3NCSVQICAjb4U/gAAAAGXRFWHRTb2Z0d2FyZQBnbm9tZS1zY3JlZW5zaG907wO/PgAAIABJREFUeJzt3Wd8FOXaBvB7dne2l4T0TjaBVEIoSQBBehFQEQQrIJajvnaOiPWAXbFgPepRsSEWVEBpAoIIAUInQAoppPdkk022zpb3QwIEGEJLstnk+n/gR56dnb1ny1wzzzwzwzidTgIAADibwNUFAABAVyTKz893dQ0AANDZtFpt2xOIiGj6N8c7pRgAAOgSfpsbd9FpRKf+gyMQAAA9BHMpE+HYAwAA8EA8AAAAD8QDAADwQDwAAAAPxAMAAPBAPAAAAA/EAwAA8EA8AAAAD8QDAADwQDwAAAAPxAMAAPAQtf1wxKhRv45Wn9/ecHTvhNX0zGPJ09TclpV/PnnM0cZLTL510msxgpK9qdPX1VrPfowR+Tz98NBbPO3/rN7w6CGemQRFxS66ITJZSQ3H947/ucJ6/hTN85F6TBrR99Yoj3BPqVpg1+uaDucUfv53wVHTRQoAAABeF4mHFg673shZWjU0GhzksOYX1qbJrZlNl3R1p8vFiNSTxvd/JtlTfbE9HEYd+PSdA2/xExAR2ewWh1DtpbnWKyElQvP0V0e2GdqzKkFA7Ip/RZq3bL4r1dSe8wUA6GIuLR50hQ/999hR27nN3/6S+m27V3SKNCj84WRPS2HuN9aQuVGSC08oHjOh3y1+ArI2/Lb+0NIj+kaHWBvX9+nJ2mSfsH+PKd/1R137FCQgclBUrH+0gA63zxwBejpGpJh28/BFMad/4Nw/a3c8ua/J7fbyGbnX7Kn9pokr3lmTk9pod3U57ePS4oEPI/JfdHbnkia8z8LRvYcHyNQCLr+w5H8bMzZW8bxNmrA+/7kufLgfa2loWLe9WHyBfimLtWHdptTvdjck3hgy98JlCJTB06IkRPbMnQdeOtRERETW/OPHFpDg5X7O9EKz+PSkDmHiiOSnh/hopY78kyffWZWVaiAiYpQ+906KnhahDpKSvqlp7/7M17dX1RLJwvv/cldYUFPBM+uZuVPDepdl/6qKusOPiChxwvjDYyr+8+be393uWwzgCpoQ7ePjIyaHyc7e0OO2rP77pb8yErwH3OTT3CKQXPXxUEasuGZA78kRHuG9ZEGecrWILE3GUp0xv7pux6GCDUXmdv/VMmKPWdMGz4+SEKnfvYN9+ueMbXVXmRAiby8ZNTbWnK5VxAaqhTV17V98W0W014wEAVEf3B7VX8xlHs1dRb439Qt/41am8X/pqeazJmPkgQtnxYxVkqW2Zl+ZI2VclLeYf4aO8oL/ll+8QkmQJlpM5KjfcrypdXvD8fRHW+5y1DIHSUjMq15sTYPFopRr+/RdNK5u6poqTqCePSvloTCBvrz8xwxhSoLvuDGDVMa/799nstrsVgeR2Ou+8XKVoeFkPZdeUhqvCOqvpOrikp3ldSfbOOACAKcwIsWYayL612fP+bE023juepMR1ezMa7rJR9kuryX1CfnPLf0nawz/HK5Ydaw+v0KX3SQI8tdEB3j07xPy4j0Rt+46MP+vivLz+kKuGKP0mpnkZSmoOdknKFxAkoDwN6Zz936fdfRKu58ZkSxpxMC3R3nRyRPzf8nZ32Rn5F6zpw+e30d0eOe+Z7ZVtWPxbWuveBCNHtq7v5jMOccf/qWolnKzBeNeiwuZ0z87Ne2sb4NPbNhYJZG54u2v9q5sJFmfAb/cGcJz7PuSMQqpmohsllL9Rab08eRe/XznyhomZcroz5JlvuG+CaKqA1Kll7n6nxzzjk1HVlaJRgjGfjhQ0j/KR7WvyOBwEBGJVXQwdfqG2kYiEihCI4L6K6k0M/NFHHsAuEQCNlBpy9xTyZcNsuGjB782REk2c6lVGiS/qteRevo/PqNff33uQytyUlttv2flG7Pyy1en5nzXL3bRpITFRsuTqbrG9ti8Y5Q+904fONvH2dhQ/s2WotvGhIZf9TpVHRQ+f7iXmojC+757q2DRuqrI8ckPRYiIKHF47JyTujdzuauv/FJc2qJ4ab974ay7kh7etHle2pk/GYEy2l9CRGW1ZpWPSkVUVm0kUkeHeUrSas5MRqJwP6WEyFlZu7ORiMh8snxfU0hQ+2w3XETDycI1NXYiSi/Q6ZNlagmrInI2lS1dUUZEJBBKxExNk4VIIhGzSqKWQ9qOxs2Hahs7o0CAnoURKcaMTXptmFpirvvsp/1fNfR68HqtynTF3TLi6MQ+Y235z6zM2s+/8WbLP5rxrEP44fi+k7L3r+Tr+r4sjNLn/25OnCyqz+K8k0PC/y04+c5fRWMj7T+uzbniXQci0leWrc8LiY6SEJE6JHLpA5FnHjpZ+ld5J2UDXfrIpeqm1jU5aqxnJ6+AVYuJiLRDhqwecqZZrVQoqab1hEqJgIgsVq62pYGzWIiuIh6cjWY9kY9IHuRBVNX6EZFEZLO02gtrNJzq57LZW43Cko0Y3e+hwT7RSuEFXsFc03SBRwDgSjFixXXjkxYlqyXGmg9/OvhlgZmobOnXZVcxQ3lCmDT/eFl6W6tmW1le0V9DB6YEiddUma6mH59R+vzfzQOnievL5H7JnkREkqDwOZV7566oqL26zh+nuf6739JoWsr8mLOO1OjzMuf/mrO/XYditu1SRy7NP2/kEtP6qQ5ObyUiyj+S/r/cVtM1NZyzam2yOIhIImZVRLVERBKV7PKrbsVcWpNuDhkr9RgXp/6uSn/68/btP+j7CfLMw5mv/1XdxtM9+ie8OspPbW34bf2JrdUO734JiweeVxCOMQC0K0asvm7i4EWDlZKmmg9X7vuyoF22iB1nb/l1oOZsmCyqPyltyQYispTmvr69+iqzoZnTXP/zn0fD/QffdGrm1FT22vr8zswGaq+zpp2OpvRSCxF5ibjU9JKN6SUHGoVqlizms86WcJLtZLXJQsT4eY1RERGpI/z6X11vo9NYvvqYiYhihg9alOTpJSAiUVBMzFuT/HyUqmgNNTnaOC1D2DtQrSZyVpd+u698Z36TRMMSEQkE/G/MqZyQiNmrKhqgRxMFxsQ8MVgp0Ve+/dO+ZWWKOXPGvD1IeYFBKpfKaTNnlXMRUX5R0jZfOiJ0rFKfVmq94l0HSfN+g7SxRumX7NXSaCnNffrn7NT69hnSykg9Zk3sdyYbiEgZ+Oxk7WBFu8z+UrXXoWnbvv0FR+Kj+sclfHOn3xGzLDnKK0hk/O2H7dvOnq46o2Tn6F5j5f5Pzhs2pMwRHqYWm4n4Pk5ZWNQro72URBovERFpwmI+vEtLjsZVvx/dWH/WS+/cfPhzv6T7QlRTpo6YMonTO1p6uizVha//WdHY1jLay3QmC8kkAb2fmSIv8/RLlhpKSRPkF/zvkY0f55w/PVdjdBAJYpIHfOBVuWpDVvuecwfQM9jKjqc/Jw7qVVy4sYJjxEQCEl/9lqrDmn4wb0ef+Bcnc4v+LD5qOH9NLdL2i100watk74GNNVe4HmfkXnOmD7zFw25Refc/tWqxlJ58+ufsbe2XDbOnp8w/dbKXXm9Wq6VEpI6IeXcmzV/Zef1L7XbNJXNp9pM/Zq4vtnmHB98U5yGurfx6ZdobJ87dZ3Q2FbzxW+6OWo48PZMCBf/8eWS1joiEEtF5lchVSeHeKeHe0WohEZFSlRLunRLuGX7eNobTXP3fb3fO31q6t9KsJ1Ytsut1DVt2Hb73yyPbLnZMuXr/sdeP6Ktt8pQE/2hz/jMrDn2bbbGIVcl9PFQ87411a1r+Xr2dpMrEYNlFT+cGAF5Om2nvvtyNFS3rBwm1TxeuWVf23qrMvb1iv7in/ySPVkcTRWx03/Cn54z+epI67++9z13FsCWJQpPg0fi/H3fev66oeWi7pTR3/s8Z7ZUNRCTx9Bke1pIN1cfT7/tsz+IjLYdT1CGBSV6d13XB5OXlTf/mOJGz014SAHoURiQbc13KvZQ1fwPPCQfSAO2rNwXmrk/7pH2OQIi0yYM/TNS/85dhxPh+NwUIiMjSZMwvr9uRXbo+vbLg6o5OSH20H/wrPpmq31mRox6dfIug4Jlf2q1P6RRRTPLAD6b4S3IyH/o156iJGKnHrGkpz8QI/tm057nd7TIkl/ltbpxWq217onY7LQ4AgJfTZkrdmRV9XezqF5J5Lo9jbPjt7/TlRe0zXlPq6T1roLe3Rv367cLM/YemLSst6IjzjMU+/77Lx1KcO/+n7A64hIYtc/+BuaUacU1dc5g5zfU//7bzsK+grKyxXU7XuETYewCAboIRKaZNS7nX35p5snJHZumGfCOuenMB2HsAgJ7EaTOs+mXrKleX0W3g6CoAAPBAPAAAAA/EAwAA8EA8AAAAD8QDAADwQDwAAAAPxAMAAPBAPAAAAA/EAwAA8EA8AAAAD8QDAADwQDwAAAAPxAMAAPBAPAAAAA/EAwAA8EA8AAAAD8QDAADwQDwAAACP0zcTZVxZBQAAdDEiItr2+HBXlwEAAJ1Hp9NddBp0LgEAAA/EAwAA8EA8AAAAD8QDAADwQDwAAAAPxAMAAPAQXegBT0/PzqwDAAA6wqWMYeWFvQcAAOCBeAAAAB6IBwAA4IF4AAAAHogHAADggXgAAAAeiAcAAOCBeAAAAB6IBwAA4IF4AAAAHogHAADggXgAAAAeiAcAAOCBeAAAAB6IBwAA4IF4AAAAHhe8HRCAuzj42bO3/9F0+k+pUh0UHDJk+Ih5E2ODZadadX/Pnfeb8Y7nV870dUmRAG4H8QDdASPymjp7TIrSSXabXlebkX78ly8+/W1D0suLZk8NJCIiaeiEqSOskeqLzalh+cIXU8e+/skESYcXDdC1IR6ge9AMHDPi5tM3wL1jZtXen+9/a+cLr6kj3r0xRkwk095xr/biszHlHy60dWSdAG4D8QDdk2/yrA/uKJ765T8f/DP2k3HKczqXqg5sXPLDnn/y6xodrNoveOTEqQum9/FO/+na51KrnUQfLIj5r3bhZ4/f5XfWlD7Bfa+fOe3RkX4SIqLy/z7x2pf+81aPK12yLO2fEj2j9B8yZdrLt8f6tJTA5W7/Y8nPB9PK9YzMa8DQMU/NGxGjaH6oYfevqz79M+twpZFResUOHvrYXRNScHN36GJwaBq6rZBxQ1JYbu+BE5az251lWx59df0RTdILTz/81aI5C4aIdn/76cK1OqbPdV8tTNEKadDtj/767uzp3uTM+fWul9bvkyQuXHD/V8/ePN27aNnST99Kb969YCVCMuVtfGqNfeLjT2z58tk3Rwt3//Dt23vMza9StfXreUtTayOvfWXBPS9PD6vfvvLuN3eWEBFxu7/48MEVhR4jZ3722hOf3jNIeeyPB15Yc9jUqW8OwEVh7wG6L1lojJ8ztay2lKh1v5Il60SWI/TBu6ZcH0JERANiY4O3pmmcJFNHBKskRGrvkFithIiKi80h8UOvf2LaVG8ioiHRjoy7ftqSWvB8QmTzrJy18htenjbVj4ho4m2j165fvje9hIZEkr34+x/TDXG3fPrEcB8iov6J9srrf9m/pXj4XPH299dXRd709Pt3BBIRxYUnBlqmP/3PZ6ljPxmn7LT3BuCiEA/QfQllaimRxWixn9Us8fPysmet/Wlnyl0pid4sERs7fmIs3wxCxtzx2ZhWfyu8gxR0QH9mO18Q0DfF79QfUo23gsx6ExE5K7PTqpiI8X19Ts9q1sLDs4iIGjbnZDq87hzoa7FyzQ8xYVEDVNu3HS2mcTFXv9AA7QXxAN2XXV9tIEajUQnPambibnjr9srHVv582/ZVPmHhKYP6Xz9x6LWBfL8Fe83fP6/7amdOZpXJYuesdnLaSdF6Vkq5qvX0QrI2/0dXW22nvp6a82dZrdNbbLVfLpz/5dntIp1eT3TRkVUAnQbxAN2Wsy4/s4rxjvcLPvcR2cDbHt0xpWL77iPbDx3/Z/3KtWu33vzk/JeHqs6ejNv92YcPbrAMmTbtrWuCgxUicuR/8vyP2y69Agd/MyPyuuOJuVP8nK0bJQovZAN0KYgH6K64jA179trlM4f24X9c7T9yov/IiRPJkP3GUx999+OeeUPHh7eewJ61dqdONuCO9+9JaVlxm8rJfGkv7unlI6TSmlqiwFNzM1XrOIla7eOtEtsbSdN7QPQVLhhA58DIJeiWuOLt3y9YXSWLm3TXwHO2gbjjf/684Ot0/ekGhXZAbxmZzxyisNibjwrYLBxJ1PLTJ8gVb9mx2URk584ZCnU+xk+b6OvMSzucf2qeVes/Hnfv0q8LSR3XN5HVb9mZeWYmhmOffLh6bT7Ot4CuBXsP0D00HNy6g1U6iUhfV5txeP/m442C0GFLnhylFZ4zJesjqN2+ekV+Q8VdQ4N8hLaSE/uW7TZHTEnUConRqNUMZezc8ocqPCQuIiVatO7Alve3S6d6WzP2bv3hZOiMPjk/5h9fezxofNy58z2LUHv3rTHrlv51/2vO+0f7Udnx738rkifMmt6HGBr5wMQdD6z95gHxlNuS/NSGkj9+/XNVRejLs/BjhK4F30joDpy22j++WvkHERExErlPQPD1c265+/oErYxnYt/xd33l+OP9ddtf3t7YclrczQ88ekuYhIg8U+ZNTXtq/dZXykLuXrjgXw/elvnRul/e/fAriXrA0LGvLBztlVb/zyeHl3zA+rw3ru2SfMfc9xWtWvLr7pff0jNyrwHDZ742b3gwERE79P75n3qv+vTPdQvWGa0SdWxc0pJHWkbHAnQdTF5enqcnz/mavI0uZsnd9M2P24tN5GADRs65f4KW5cp2Lv9uS4GJSB4x9Z7ZSV5EXOGmL5anVnJEHgkz582I4xk7AgDQY+h0Ot5GrfYil5lxp2MPhRu+/Uc6/bmXX331mUmirb9ur6X6HT9sZCY+9eLixfOvNfz+w74mchatXZ7me9uzixcveii28Pvfj6E/FwDgSrhTPIRN+Pezt8TKiUge4CWxcmZjdmZF1OB4ORFpBiWHFB7NtdVkZdviUrQSIoFPcqJXdkaxq6sGAHBL7hQPJNc0DyKp37suw2N4UpChpkmh0TQfPmHVSpFeZ2poMGo0mlOTy4y6Gs5l5QIAuDG3OzTNle34/H+7es18YKQ3Vbd+wHbef4iISNz27IqLr3D3wul0XnwiAOhJ1Gq1h4eHq6toN+4VD1zhpg++zoyd88h1WjkReXhrDMd1NgoREXENeps6VuZtlxt0NUQqIjLq9HJPNdvmHP39/TulcgAAN+NO8WA49v3X6bHzHrsutGWVz0bFBP+x/5gxIVGu27O3NHJEX5HGO160LC3fEq5ly1IPmeNvCGl7nizbdnwAAPRQbjSwlUv7+LHvCj29Zc0rdLbfbc/N6Fud9t2yDfkmEmr6XX/PjAFqIq5wyxfLd1RyxHonz7x7Sl+5i8sGAHClKx7Y6kbxAAAAl61HnPcAAACdBvEAAAA8EA8AAMAD8QAAADwQDwAAwAPxAAAAPBAPAADAA/EAAAA83OmiGgDQY5nS02s++tC4Z49ALBEFBzvq67nKSklEhMDDw5qT4zA0SaJjGKHQnJXJCEWS6GiH0Wg9cULo5SXu3ZurqOBKSiRardDT05Kb62hqlETHMCKRJSuTGIEkJsZhMlmzs4W9eonDw21VVdaiIjYoSKBQcEWFRCSJjnFaLJbsLIHGQzNlitPh0K9f79A3iKNjBCzbPBM2NNTR1MSVlYnDwjxvv91zzhxXv2HtAGdNA0BXZ0pPL5w502m1urqQS+X90EM+Tz7p6ipa4KxpAOi2aj760I2ygYhqPv6YKytzdRVXC/EAAF2dKS3N1SVcNtPhw64u4WohHgCgq2MkUleXcNkY8UXuRdb1IR4AoKtTjR/v6hIuj0ClVA4f7uoqrhbiAQC6Op+nnpLExbm6isvgv2gxI3W/PZ5zYGArAHR1Qo0mfM2a6jffrP38c3FEhGr0aHt9vbW8XBoRIfT1NR8/5jAY5QMGkEBgPHyIEYlkCf0der05M1Po1UvSN4orKLCWlUnCw1l/f1PGcUeTQda/P8OyxsOHGIFA3j/R3tRkzsgQenpI+0ZZi4utJSWSsDBGJrMWnCQiWf9Ep9lsOnpUoFGrJ11Hdrt+05+OxiZZQgIjFpsOHyKGEfcOdxqNlqIiSWioZuZM2YABrn7P2gHiAQDcACMUes6ZU/v55+opU3yeeMK1xahvuMG1BXQOdC4BgHuwFpcQERsc7OpCegrEAwAA8EA8AIB74EqKXV1Cz4J4AAAAHogHAHAnbHCIq0voKRAPAOAeuJISIhKH4NB0J0E8AAAAD8QDAADwQDwAgHvgSksJ5z10IsQDAADwQDwAAAAPxAMAuAeupJQNCnJ1FT2Im12Sz5C/admXaxqH/OfZ6/2IyLDr/YUrSzVKlohIOnDuMzP6CrjCTV8sT63kiDwSZs6bEadxcckAAG7JneLBWf7nsnVNUTEB+0+1cEaTz6hHFt145jQZZ9Ha5Wm+tz37oJat3vTe0t+PvTQ73p2WEQAuhCspxjlxncmdOpcY7zEPPDIjXu083WI0cnKJovU0NVnZtrgUrYRI4JOc6JWdgYu0AABcCbfasmZZ9uwGo8VYn/390iP6Bos8YuTNt44MaWgwanq19CfJNTJjTg1H4ez5swIAgDa5VTycxzthyuSoyOQEf1Z38It3P/095NX+RLazJrnI3cCrqqo6sL7uyOl0XnwigA7AlZYKEvtXVla6upALkkgkHh4erq6i3bh3PHhEDb+m+X+eA1O0K7aWmcd6yg26GiIVERl1ermnuu1dB7lc3vFlAkA7qCMSikQKheLik0J7cOt44I6ueHNXyIP3j/AiY9bRAknwSKlGHC9alpZvCdeyZamHzPE3XORAllKp7JxaAeBqNF+PjxWx+M12GneKB8O+z99aW8o11TTQB4v3y6NnPTdjzMiD37zz3BYxS2zANfdM0xJDE+8c9sXy1xZzxHon3353lDstIAC0Dec9dCZ3Wnsqku5bnHRO24i5C0ec3cKGjXvwuXGdVhQAQPfkTgNbAaDHshaXEK7H17kQDwAAwAPxAABugCvBKa6dDfEAAG4DF9XoTIgHAADggXgAADfQfN6DOASHpjsP4gEAAHh0dDzYmxpNVkcHvwgAdHfNN5qGztRhp8VZajb/sefnw9VVNu87Hh+l2LqfGTNysj92VgDgyuG8h87UQetra+qvmz861KQM8/IVEpHdWl/09ZocXce8GAAAtLuOiQdH5Z4cZvwdM5beMyBa7GQEHtPGa2VlVfm2iz8VAOB8XAk6lzpbB/b2cK0OOTTpjTYBDoQDwJXD9fg6WcccexD4DQq1vbv859xgVZOpPuvn39eW1TJ9R0QhHgDgiuCs6c7XQSts8ajp10wOpOKiWp3DXllUawuIeeimSFymHQCuGE6Z7mQdNnJJE/7Ao+F31tVWNtrFKo+QXhe5qScAAHQpHdbdY6nZ/MvmNbVeEWG+ipzdz6/Mybd01EsBQLfHlZaywTj20Kk6KB7s+9Zs/nBveZXFQUTkMGTt2/ny2jJrx7wYAAC0uw4a2Fq2O5OLmTj1oXgBEfUaOvHdST5NGQXZOH0aAMBNdFA82Dib0N/P49QBB6Gfr5K1WpsQDwBw+Zqvx4eBrZ2sYw5Ni7y0fravV611FvYOVwmtDZV7DhTa/FO07nRnawCAHq2DVtjqydfH7fry6N/ba/8mIiJG5jVrcrRfx7wYAHRvzTeahk7WUdvzkrDBby0M359RXtzgYFReCfFBWkUHvRQA9Ai4Hl8n69DuHrGnr6/S205E1qryLJIHh2twZhwAXC6cMu0SHRUPRTs3vbC2VNfqWDQjCHn6lXFDcfgBAMAddMza2lG8+q/SepnH4ChfP7Hw1Et5+eGaSwBwpXBRjU7WcRvzsvEzb3w4FoEAAFereWArdLKOWX0LAscPlFWW1+M0aQBoL+IQHJruVB3UuaTLN0jq0tbM2+8VpBK2nBwnDrjl7oH9sDsBAOAOOige6tMPlxc7iGprs2pb2hiBZIoDdwQCgMvGlZYSBrZ2ug46azr8keeCHhEIz7TYrNV6UTiGLQEAuIkOWmELlSoZmRqLa6xWshORofDYO3+xj74wYtDV7T0Y8jct+3JN45D/PHu9HxERV7Zz+XdbCkxE8oip98xO8iLiCjd9sTy1kiPySJg5b0acpj2WBwCgp+mo7fm6Q38v/OVkJXemhdHEXuU5cc7yP5eta4qKCdh/qqV+xw8bmYnPvpgob9jz6ds/7It5eHDd2uVpvrc9+6CWrd703tLfj700Ox77LADujSspxfX4Ol8HXbG1Zv2mk/Uq32GJPn6sLDrKy0/je8ecpKu81zTjPeaBR2bEq52nGozZmRVRg+PlRKQZlBxSeDTXVpOVbYtL0UqIBD7JiV7ZGTjZEgDgSnTQoenG4ibVlHun3BV08vVXC0fNHRV/9K9//5U//q5Iz6uZLcuyZ/1tqGlSaDTNi8CqlSK9ztTQYNT0aulPkmtkxpwajsLZc2d0RkN9w9VUBD2Hk5wXnwg6hqWoUBgYVF9f7+pCLs7Dw8PVJbSbjokHgcRTYty/5+TYG0hMuuxSLooVWk6WZ9kiO+6iGrbz/kNERBe5x7XNbmt7AgBwOSeRk5x2u93VhVyEUCi8+ETuo4PiwW/cIOWW7ZlHJ43Qeum++nj5b0RMr9he7dyV5eGtMRzX2ShERMQ16G3qWJm3XW7Q1RCpiMio08s91W3sOhCRl5dX+9YEAO1OJxCwIha/1k7WQachCCOvm/rmLXHRUtWUG4eODPUICQqeNa3/VR57OA8bFROcv/+YkYh0e/aWRg7sK9JEx4sy0vItRI6y1EPm+P64SAuA2+NKS9lgHJrubB3U16Pfv7tGFa+NkhCFxPz74RiqKVidU99E/lczeMmw7/O31pZyTTUN9MHi/fLoWc/dOuL26wuWLVm0moSaftPvSZQTySfeOeyL5a8t5oj1Tr797igMWwIAuBIdsPa0WZsMJevWZgR4BgaFNO8v2OsyMr//SxmPa5lCAAAgAElEQVSS5D/oKl5QkXTf4qRz2nxS5i5MOauFDRv34HPjrvxVAACAOiIecjevnb+tgYho2Q9rW7UziihcUQMALlfz5Vpx3kPna/94iLx25H9kRz7bWELBviGS068jj0hKuMpTpgEAoNN0QOeSwmvwtQmVdR69Rg0c2qv9Zw8APYq1uIRwPT5X6KD7PXhPmaJ1ZpdWElmLMz/4fN3z3xw8gPPPAADcRwd199j3rdnw5sb8Eptu1a97tuTVZmUfWbrmZFPHvBgAdGNcCS6N4xoddM2lst1Z3OBJA/rVFe6uEPa//pavbg11nizPdnTIqwFAt4cbTXe+DooHm4GThwQqLSfLSsgzIUqi1MjkNqsV8QAA4CY66KIacj+lcdff+2p11ZxHdIKHNW9fdb3Cv70vqgEA3V/zwFbcaLrzddg1l4b6bFl7bDsJYyb3iaLS13fV+adcE454AOh66r7+unHDBrtez4b3ZpxOa0GhUKORRERwNdVcQSEbFsr6+lny8uw6nSw+nmFZU0YGOZ3iiAiBRGLYvVuoUrGhIXZdvV2nk8TGCqVSU2Ym2WyyuDin3W46flygUEj79rXV66y5eaLAQHFQkKWw0F5dzfYOY4RCa0GhQCaT9u1ra2q0Zp8Q+fuLQ0KsxcW2igpxVF+RSt24bRsRVS9d6rtggcjf39XvVg/C5OXleXryXGabt/GyNFVVlThU0f4yIlPWsSa/WB9Pt4oHp81mTEtzOhzyQYNM6en2ujqBXC4KCGAEAmtREevvL42LMx465NDpJH36sMHBht27nTabfOBAp9lsOnZMIJPJU1JMR47YamqkkZFsWJhh926n1SpLTCSHw3TkCCOVKoYMsZ48acnPF/n4yBISTOnptupqiVYr8vIyHjrEiMWKoUO5oiJzbq6oVy9ZYqLp2DFbZaWkd29xRIQxLc1hMsni4y1FRfaaGhKJRD4+jFDIlZezISHSvn2N+/Y5mpqksbECtdq4fz/DMPKUFHt1tTkrS6DRyAcNMmdlcaWlbHCwJDzcuHcvOZ3ypCR7Q4M5I0OgVMqTkswnTnDFxWxgoDQmxnjwoKO+XhIVJfL3N+7Z0/y2OAwG87FjAoVCnpxsOnTIrtNJIiPZ0FDDrl1Om00+YIDTajUdPcrIZIqUFGt+vuXkSZGvr6xfv5a3JSJC4OFhOnKkeUmtBQWWvDyRt7fI09NaXGzX6QRqtWLYMOOBA06TSZaQwIhExkOHGJZVDBvW+m0x7t3rMBik8fECudx44AAjFCqGDOHKyy0nTgg8POQDB5ozMs5/W8jhMGdmCtRq+eDBLW9FUJA0Otp44ICjoUEaHS308TGmpTmdTkVSEiOVuvr72FFKn3hCv3q1q6u4JCJ//7AffhD37u3qQtyMTqfjbdRqtW0/sQMvSaT09Y1u+a8sOl7WcS/UEep//rnqtVftDXoiIqGQEQqdVisRCT009lO3iBAoFY4mQ/P/GYnEabEQESMQOB0tx1gYsbj5WUTEyGROk4mIiGHI6Ty38ey5nZ5GIJU6zObzJxDIZQ7juU88q1EhdxiMLTMTiZw22zn1nFX86QlY1slx58+Bd0lJKKRTF1g+00jESKVOs5mIGIZxnlpS3oJba/1WCDXqlnf+7Cfyvi2tX/p0Sa0bz3rfWi3UaRdc0lNvl0Am8336ac85c6jb0W/Y4C7ZQES2ioqqd98J/uBDVxfSU7T33oMt9/VFu6Q3DzH/krqbO+sRhg1/+sVRHXe/h3ZkSE0tuvNOV1cBXUvwZ5+pJkxwdRXtrOL553Xff+/qKi6DQKWMSj/q6ircTJfZexBIPH08JBKxpZdHyDnjlIQysZt0Lul+/MHVJUCXo1uxovvFw+kdWbfhwPDHztPu8RDywOMhRESxvdt5zp3Imn/S1SVAl2PNz3d1Ce1PPnSobsUKV1dxGRTXXuvqEnqQdu/r0aenlVY6mPMfsJJq8NAgv/Z+vY7ABgdZMjJcXQV0Ld3ymj/qqVP1Gzc0rlvv6kIuidDDw/vxJ1xdRQ/S3vFgq1q3as9uvv0/RhDSKynIzx2OPXjMuLlp02ZXVwFdi8fMma4uoUMEf/Rxbdwn1e+9RwKBPDmZiKwFBUIPD7E23FZTyxUUsGFhIh8f68mTdp1OEhsjEIstmVlOh0MSGcGIxYZdu4VKJasNt9fU2uvrpbExjFRqycxy2myS2BhyOCzHMxilUtIn0t7QYM3JZYOCRAEBXFGRrbqaDQtjRCKuoICRySRRfR2NjZbsE6KAADYoiCspsVVUSKKjBAqF5USO02SSJyV5/d//YdhSZ2r3ga36/TuLKx1k1RWtT+diBvYOVwmtuso96XV+w4bfP9b/akfLdpbazz6reuON03+eHo1z1oigVuN8+LUapHTW//kmuOjczppAIDjdCXt6bM9Zw4eEQmeb920/PVrpghO0msNFJ+ZfutZaFcy/pK3mIJDJHKdHeTHMRbqbL/bSrYvnfVvOmuACS+rz2GPejz/eVhluLjM8XDNjRuDbb7u6EGh/XebQNKkHD48j0q/66GjsjbOeSGg+GB03OfyvR3Y3WMe6zSktXvffL0tKKpwxQzl+nP9zz1uKimxlZQKVShwebq+rsxYWsgEBylGjGv/806bTSfr2FQcHtwz2HzTIYbGY09MFMply1CjDnj22mhpJnz4SrbZpxw6n1SobMMDpcJiPHGEkEuW115pPnLDm5Yl8fFTjxzdu2WKrqhJHRIi8vEwHDzJiseKaa6wFBZacHJGXl2rixMatW20VFeLevWX9+jX9/bfDaJT26+dobORKSohlxaGh9vp6rqxMHBoqGziwaetWR1OTJC5OpNEY9u5lBAL5kCG2qipLZqZAo1GNH2/YtavlvIeICOOePU6nU5GSYquvtxw/LlCplGPGGPfvbz7vQTF8eOPmzY76enF0tNjf37B7t9PhkA8e7DAYzEePCpRK5ahRhtRUW12dpE8fcViYITXVyXHygQMdHGc+coSRyZQjR5ozM635+SI/P9XYsY2bN9tqaiQREUJPT9OhQ4xEohwxwpKba8nNFfn4SKOizCdO2KqqRD4+8uTkpu3bnSaTtH9/AcsaDx5kWFZxzTXWwkJLTo6oVy/FNdc0bdvmMBql8fEChcK4fz8jFCqGDrWWl1uzsgSenurx45t27Gh5WwYNatq61dHYKImLI4fDkpkpUKtV48YZ9uzhSkrY4GDFkCGNW7Y49HpJTIzI27vipRebNm0OfO99zY03uPorCdDZOua0ONvJd17cUT9x+svDW+4tXbFzwyN/yuYvco+Brc0Mu/cU3X5bwJIl3bVXAS6q+TsQuuIHxdAhrq6lA3ElJbkjRng/+qjPE+jZ74a6zt5D81w9gr3s23//7b6DviEqobWxNqvEZPNN9HOTga3NcBlhaMaVFBN153jA/XaAVwdtzHveNCul5PtD20vKK4mISOIbftfM/lq3iodmuIxwT9Z8GbjmS8J1Y9gSAl4d1dcjDoz994LY+xvqKw12sVQV0kvcQS/UcXCdSGjGlZa6uoTOoBg61NUlQNfSsYcClBoPpaZDX6ED9ZCVArShub+FK+nm34Ruv3sEV8YNu3s6Fzpkezg2KMjVJXS45i0hfNXhHIiHC+r224xwKdjgkG7fNY+vOvBCPFwQV1IsT+nO41UAmnElxT1hJwkuF+KhLWwwfjM9HRsc1BOOQmGEHpwP8XBBPWGlABfVvFndvQ/ecqWl2BKC8yEe+HXv1QFcruYTxwB6FDe4xoVh1/sLV5ZqlCwRkXTg3Gdm9LWX7Vz+3ZYCE5E8Yuo9s5O8Wk3OFW76YnlqJUfkkTBz3oy4KxtY23IeKTpkezz5kKH0wQeurqIDNW8J4asO53ODeOCMJp9Rjyy68UzfaP3fP2xkJj77YqK8Yc+nb/+wL+bhpJZrO5GzaO3yNN/bnn1Qy1Zvem/p78demh1/JcvYPFgFQ/2gmXHP7u562SVcUQMuxA06l4xGTi5RtG7IzqyIGhwvJyLNoOSQwqO5Z67AXJOVbYtL0UqIBD7JiV7ZGVc1JBHH66Dbnzbf7YftwhVzg70Ho8VYn/390iP6Bos8YuTNt46U1jQpNJrmylm1UqTXmYhUzRM3NBg1vVr6k+QamTGnhqNw9sIzN5vNvO2mggIicvr6XGgC6CFsFgsRmYuKuus3geM4InL6+l1oAZ1udz9ql5LJZK4uod24QTx4J0yZHBWZnODP6g5+8e6nv4c8IW316Pm3bjm75SLXeqqrq+NtNxWcJKL6+npBN/qw4UrIZERkKiy80FfF3Zlzc4nIoFSYuukCdia5XI546FQeUcOvaf6f58AU7Yq/ysRDNYbjOhuFiIi4Br1NHXvm8/D2lBt0Nc07E0adXu6pbmPXgYgCAwN528tkcitR8KBB7bUU4L6MQUGsWHKhr4q7K9PrLfiqA5+uf+yBO7rilc921BIRGbOOFkhCAtVRMcH5+48ZiUi3Z29p5MC+IiJjTXGNkUgTHS/KSMu3EDnKUg+Z4/tf4cEDXGYATusJ19UAOF/X33tgo8eMPPjNO89tEbPEBlxzzzQtyXvffn3BsiWLVpNQ02/6PYlyImv6L2/vSXj98WHBE+8c9sXy1xZzxHon33531BUuIC4zAK1143MkjXv24KsOvLp+PBDrP2LuwhFnNQl8UuYuTGndIh7ywPvN4w7ZsHEPPjeuPV4Xw5aAiJqvrZJGzTejdnUtHQJfdeDV9TuXXAOXGYDTmjeuu+uJ0/iqw4UgHgAuorvuNAC0DfHAA5cZgNaa+1665dFpfNWhDYgHHrjMAJyvW16lEV91aAPigUe33E6EK9aNr6uBrzq0AfFwQRjOAa1147Gt+KoDL8QDj+ZuhG68zQiXpbnvpVueKYmvOrQB8cCjeTsRHbJwmjxlSLfsh+nGu0Rw9RAPAD0dtoSAF+KBBy4zAOdgg4O65YY2V1KKrzpcCOKBHw7WQWvN69DuN7aVKynGVx0uxA2uudRBuLIyY1oaEclTUmx1dZaMDIFKJQ4P5woLudJSUVCQraJC5O/v6jKhC7EWd7fLLnGlpfIh3fMmqXD1emg81Hz8cfXbb5/fzrCsk+OIyLR3b/GDD/rOn68YMeL8yaBHMWdmGlJTiajiPy/I+/fn6mq5/JNsaCjr62spKLDX1UljYxixxJyVRXa7JDaG7Hbz8QyBUsn6+9l09fbqaklsjEAiNWdnE8dJ4mLJ4TAfzxDI5ZI+fexNjdYTOaKAAHFgoLWkxFZZyYaFMSKhtbBIIJFIoqIcRoMlK1vk6ysOCbGWldnKy8V9IoUqtSUnx2E0SuJiGYaxZGQSy7JBgQ6jyVZSIo6MEHp4WnJzHY2N0rhYEoosGRkkFEqio51WiyUjU9irl6R3b66qiogMqamNmzapJkxw9dsMXQ6Tl5fn6el5/gO8jd2Dfu3a0kceuZQplRPGB7zyqsjHp6NLgi7LuH9/0R13OK1WVxfSsfwWLep1112urgI6hE6n423UarVtP7EnHnuoX7nyEqds2rTZkpvbocVAF1f99tvdPhuIqOr11x1NTa6uArqWnhgPXPFlDGC3lZV1XCXQxTmMxuYDVN2e02o17tvn6iqga+mJ8SDWhl/qpEKhsPt2sgEAtKEnxoPHbbdf4pTKsWOUY8Z0aDHQlQnkcvnQoa6uojMwUqk8OdnVVUDX0hPjQTV2rP9LLwlksuY/GdGZ4VsClbKlUSpVXTep152zXVAfdCU+Tz7JSKWurqLD+T3zjEChcHUV0LX0xJFLzZwmk2HfPiJSJCXZdDpzZqZQpZLGx1tPnuTKygQKhWLYMFfXCF2C+cQJ3eefm44cEajV0shIrrbG2jyw1c/PcvKkva5OGhcrEEvMmZlOu10aG+u02y3HjwtUKpGfr11Xb6uulsbGCKQyc1aWk+OksbFOp9Ny/Dgjl8v69rU16i0nckQBAZKgIEtxsa2yUtw7jBGJrAWFjEQijYqyNw9s9fMTh4RYS0tt5eWSPpFCtcZ84oTTaJTGxRHDmDMyGJYVBQc5DUaupEQcGSE6NbBVEhcnEApNGRmMUCiNiXFYLebjGcJevSTh4VxlJVdUJNaGe9x6m2rsWFe/zdBRrnjkUs+NBwCAngADWwEAoD0hHgAAgAfiAQAAeCAeAACAB+IBAAB4IB4AAIAH4gEAAHggHgAAgIc73A6IK9u5/LstBSYiecTUe2YnebX5EFe46YvlqZUckUfCzHkz4jSuKxwAwH25wd5D/Y4fNjITn3px8eL51xp+/2FfU1sPOYvWLk/zve3ZxYsXPRRb+P3vx2yuKxwAwI11/XgwZmdWRA2OlxORZlBySOHRXFsbD9VkZdviUrQSIoFPcqJXdsZl3NoBAABO6/qdS4aaJoVG01wnq1aK9DoTkepCDzU0GDW9WvqT5BqZMaeGo3D2wnPnbPYOrR4AehRWJHR1Ce2m68fDWdroKrLxTyNue4a7jmP3AgDah59GGt3b39VVtJuuHw8e3hrDcZ2NQkREXIPepo6VtfGQt11u0NU0714YdXq5p7qNXQciGhYX0r7lHsqt0AZ4aBTd5w4BVfWGmgZjbJiPqwtpT3uzyuJ6+yikbX873ElpTaPRzPUJ7uXqQtrTruPFg6MCxd1oe9y9dP14YKNigv/Yf8yYkCjX7dlbGjmir4gsDeUNbICv/PyHNN7xomVp+ZZwLVuWesgcf8NF1v7tvifIMIxQKOxOO5hCgYBhmO60RETEMCQSCrrTQgkFAkbQ3T4mImK716/JvXT9eCCPEbdfX7BsyaLVJNT0m35PopycmaveW+P3+NPXBZz3EMkn3jnsi+WvLeaI9U6+/e4oN1hAAIAuyB3WngKflLkLU1o1MDF3vRnD/xARGzbuwefGdWJ5AADdUdcf2AoAAC6AeAAAAB7u0LnkVvpr/VxdQjvrpZL1UskuPp1bGdw30NUltDM/T4UfKVxdRTsbGtvOAwvhsiAe2pmY7W6jLLrfElF3XKjut0TUTRfKjaBzCQAAeGDv4VIZCrZ9++UvuREPvXNXbHOLsyrth6/W7KswkTJi9O333BDD2wNTve29V38TzXrz4WHyS31KZ3FUH/112bLtgikvLhjXchlcY+6Gb5ZvO9FgZ336TZt3x7AAvvPGyta9/NpfQQ++fXecgHJXPvPW1rqWB4Teox9/9dbIzqqfz2V+TNWb3nzu1wKm5S9ZyoNv3p3IUv2xn7/6aXdRE8kDU2befWui17mv0qku82Nypn8+/5P9xpa/2LDrn392sn9X+5ioKWvdF19urBuyYPGMUMEFWs7gW16ucNu3323IqOWEmuhxc+6eoO0+pzh2GYiHS+LM/fm9H3VRvb0LzrRVb/7ml9L+jy5ZGGLN/P6tb38IfeHuRPm5T6zfs3J7tZgCLuMpnaV65ycf7faNDpWUnG6yZv781S7JzGeWJirLtn269KvN2mcnn3uFAGf5nz/tNctP/YBtRi5y+msLxrt2Ddrisj8mh9FoCZywcPGM3q3m0rTnx29zQu957YkoUeG6d/67fFf4Y8Ncd1n4y/6YOLOB6XffR/83uPXqskt9TGQ88M27G5kYrbr+wi2t8C5v4bovN1omPfXGMO+mg1+8/eWv2hdvjcTarJ2hc+mSMOohs+ffPzKw1YZn3dHDlZHjR4ewRIqYCcM80g+esJEjd8VzT32XeWqapgO/bhKOGtuXbeMpLqOIuGH+gmlxqlZN+QeOKZKnJHoSsYHXjI5rSD9UTmTY/s4jb29vaJmk+u+fdnlfNzKgpU+YM1o4sayrHBG9/I/JaLSw8rMT2pp58ETA8HFRMiI2bPSo4KK9x5vIdS77YzKa7CQ9Z6Oja31MJAwY/cDC2YO82mpptUR8y1t4KN0+YOwwb5bIc+D4gcJjB3HxtPaHvL00vqGhRNWtGpzV5Q2agF4tK36fAG/nkeoGEgSOvm0O1zLawnj0198bRz46TP3b7208hVy1QScPCCFytG6pL68yeUW31MP6eKt15XUOCoi/8e4gj+b1Tf2ulf+ob3o8rnHZquapOKPRVrX7k8W/FzXY5WFDZt45I9HbhZscl/sx2Y1Go7FkxSvbCis4eejA6+fcOsS/pqpW7BvYsrsg9faX15dXESk7fVlaXPbHVG00Okv+XPrC5+VNrEfk6NvmXtdX2cU+JklgqC85m9psIVK0LBHP8taafSt0HpG+LVN6B3g1HCw3UrjLdsW7KcTDleI4G8uyp35jrITlzDYieUB8fHOLNXPV79Uj7p7tRUfafkrXwXEcy576RjCsnOU4zk7kFTmg+bfZcPDXLcLJjyRqBDtOP0fTJzmeHTx+ZJym4eCKD79Z7h3y+Oiu0YPRrO2PyaEJS4wKip8w8lEva8aqj7/8bEPQov5mTnT6XSCWZTkz55LSL+QiHxPrGz0gxveaCQ9HSKu3fbX00x+8X7kvrqt/TLxalqiaZ3k5jnOw8lPdZyzLEsd1rU+pW0Dn0pWSsiKO41o26zjOwrHSVlnL5a5ZXTrwlnEBgkt+iuuxLMuZTgWWkzNyLNtqYKHx6Oo1ppE3J3m2foq835S5t02I85YQ6ztw8gi/vMyTXetX2vZ7LogcP3fOdYP85QLWI37qSG1l9olaVspyZtOpKTgjx7KSzq66TW1/TOQzaOacmSMjNCxJAkdNSJLlZp10dPmPqS18y8uyrIAznloGzmwiVoFdh3bXpVZP7oTxDvBuyKnkKFRCRPVFVWKvpDPHL53FB49XlTe898QmIuI4I3fk+TdqHr+/rad0AR4B/up/SstpcAgRcZXleq9gv9Px5sg9eLw2L/2VJ34nIs7YREVP66ct/FdcQw2FhHo3b8fZOVbYtcaPtP0xkaW6qNTmrQ04vWZhBWJvfy8us7qBSENEhvJak/cg784vvA1tfkxExtK8GnlE6OkUFxBLxpr8Lv0xtYlnef2lAf5e1eUVNvIUEVF5RY2Hv5cbLZK7wN7DlfLolxic+/emfCNRffq6XYaElCgRkbH82LGiJmK0sxYvXbr0naVL31n65rz+irjbX3n6hlBP3qd0IdpB8dZ9m/fVElkK/95ywntAsjcR1eYeyq3hBAlzl3zUvERLX7ol2mPgvW88PtKrPu2nd//3xwmjgzjdwfW76rT92ro3nwu0+TGROWv1hx/9ekjPERmy124vCI+PUYljUvpWbduQqScy5m76u0Q7JM5lBx74tfUxEZXt+uK9r7cUGYm4stRN+2xRg8IFXf5j4nVqifiWNzA5QXXsr9RyjriqHVsOSBIHh7u63G6IycvL8/T0PP8B3sYeK2vFMx/tqOOIyEEkIEXKg2/elcjWHlyx7Jd9xXryjJ4w+57rImXkyF3xwv/sdy6ZHXPmudZDnz+dGvfKw8PkRHT+U1ylfuu7//kpm2tZIhJGTnt+wXX+xtxN3yz/83iNQx42aOa825O8BWTY/s7T+wa/8uTIM1vdhh1LX8qZ8PrdcQLiKtJWfLPmcKmepN4Rw2fOviHOhTtEV/Ax1R9a+dVvu/IaOFYTmTJt9q2DvIioPnPVVyv+yWsgj97Db5s3I86FP4Ur+JgshduWf7fhSIVRKA+MmXDrneO08q71MVkP/Hf+F0dOf0xinwkPX1/54bKzWp5YPMNvx+kvHs/yEle2c/my39MrODag35Q5s0eGuEHguYhOp+Nt1Gq1bT8R8QAA0J1dcTygcwkAAHggHgAAgAfiAQAAeCAeAACAB+IBAAB4IB4AAIAH4gEAAHggHgAAgAfiAQAAeCAeAACAB+IBAAB4IB4AAIAH4gEAAHggHgAAgAfiAQAAeCAeAACAR9e6mSVAp6o5/Pjbh/IdREQkEKo0HlFRfW8ZHx2lautJxelHDogipsV2sVuMArQ37D1AT8doQm6aNOiO0dEpntb0Pbuf+uDv7Q0XntpWvOr3g2syDZ1XH4CLYO8BejrGw2/ymH5+RESDxm9Y+8K2k19v6jt0ZqDYVLnqlz2rs+t0NqF/SO9ZM4aPkx1f8Pr+bAdR2vobs6JeeWZYv8bin1bvW5/TUM/IImITH54erZW4enkA2gn2HgBOE8Zc2ydKQHV5xScd9n1/bP3qaFPkhOuW3B7JFud9tvJ4pSrqkRlaTyJ1/LA35/WLEuhWfbd1RaZg2Iyp794S6ji2+821ZVZXLwNAe8HeA0ArMlUvCZHJ2kTC/tfPWDGFxAqx2MEM0mSvqasvIfFAX6lYQDaFR3SgimoOby9xMGF9Zw3w8STN5N5ZH6fnHb0xcBB+VdAt4IsM0EpjY52FqJfMk6gu68CHm/KzdVYrETmIkZ07rbPRaHCQozDtvuf2ExHZGaLGYj0N6tXpZQN0AMQDwGn2zH+yjjrIq09IsCX3nd+yjiki//PciEGKsk9f+3MDd+7UjEquEJAgZPCbt/Q+NYxJpPDo5JoBOgriAXo6Z33l+q1ODwdXWZi/JbuJ0YT/a4yf2FHf5CDi7Lq6ql07jx2wElkb80rN8QISE9WXFGzPYRP6hI0MPnKyLHfLSZ+RHrpNm7MKPPstvC0SI16hexA+9thjMtl5u81EvI0A3YqxYuOuCp1Zn5Vbfjivstwq75OY8OhtyYM0RGJ1oLM6Pa9k26GKxsCEh5PpUFbJwTxm4HitqrAovah8X6FwwNDIkX009sqK7buO/XGwytgraOakhDgl4+qlAjiL2WzmbfT09Gz7iUxeXh7vRBd9JgAAdH06nY63UavVtv1EDGwFAAAeOPYAAO2uUvfobTWHOLLpbTWMyF9FJJE+9I135d2Vgk96P3Jmo9X0/o3VHv8NnRt0SXPV76t+/jV9HicQkt2uVjy0JGBy8BUWaP6laNR+z51vqLAKvDC8NwDQ7vw8P9jqSeTMeu/kIyb/Dc/IRUREpvfPnU722JrQS56p4eMFjYFLtR8MYIgcOZ8UP/F548gXVYp2LBvOgngAgM7jKF5Ves9+a2GJM+n5kNcnWpdMqrBkfAcAAAWQSURBVPb4svecQ0UT1ounKWwF1Vweo3rjM+9+TsOn91WsMggDQuQROn393RHvjHQYLCQjB5GQSNDnwbC1RESGJSOrSyeygkp7Ra4j8tGglyeyVN/07qPVOw2MiJjgW/1enykV5tQ985QuTyCwWQRx/wp8/Qb2VD3O2r/K5/2XfeErnyR1S5N+X9WC1xurGYZ81U+96T1EbVnzXPmXWaRwEvXzfP1Fjf/almqz86z1SZ4zRMbdedaMavkLX/sNb/Nqju4G8QAAncde4ufz7Q9i287SCZ/oiydKm1uFJKjLYUavCx4g5lbMLPzhYC+vzOpvlT4bv1WrK+vuGev0uJuIlP9aoH9wbt64eMXwYfIR16lGRohEREQWXZ+gb59lbemVN86vOzTRp/GlqpzrQ3+bKSJL4/OTKn8cFjqhytn/qbC3horoRNUN/1d36Aa/GCIiMh6tfvxjeuyzM9lAZPj0SWP8V9pHtM5jn5R++7e1D1f5js7j1189fMj6w51Fb/+uXCoQNBQLJ/3hP7++bu7guqLftUtj7WvuLVh10Hf4yO40cA3xAACdRzh0mFhEJPJlPRqcplYPSPvIYsVEJPTydeobnAUnbL2HydRE5KeemFibRkTEhE4PWjeFO77fsHt302dzaz6YHrRiPhGxSYNYIhIlSCLK9bmNlrLj1mMnSmb9SEROg9CprGJ6+QqL3y6991tG4rRX6KXN19vlihueeMA66LvwsT6t6qg0pRskD2gZIib+wZAl5Nz1jDV4mMKHiIgdPEi07LjF3o9kkZK+ROQh7KWWxPZhiASeajK2caVft4R4AIDOc2as5LnrHgkJW/1l49kKd+obSK1h467xiLvG495Z1TOn1O+ZrzkzT8vpKdmpS3ovjD39p/W7mTWls3t/cYOIKmvunNJy/rsl19F7JLPxf01z3lBdznVQmFb/Nr/aZTzZrWBgKwB0OUzvPqKCA2YDEVU2/nWYiIhOVN85pWRlqZOIiJzVOdbqMDaAiMiy7wBHRLZsU3aAJFolGRDn3LHRZCEii/G7V+qOWu11eiYkUkTkyN5gyOTITkREytGezyzxvzm/6j+/c0RkqDIX6J3kJ4tTmlIznESOrE+K7lvORQ0Wl+wyVhMRcfsP2OIGioXnVttdYe8BALocJvQmr2kbK6fPqAuPlPcexNQTUV/vd+dXvPyvvM8sjISc5Kt46APvWDKulbGeOVX338WVF9PQ/wT3IwH9x3//o2UzZwilxATf5DtLLFXNZe9/tOBYiDDqJs+7e1e9u0j/cf/mF5Ld+7bnPbeVLx8UrP2o5J2I0F/vVTz0lnLBk/nTZURqzVPvi73Ufv8+WH7/DJ3CScLBvq9PFNJal743nQdnTQNAF1Rp+C1TOGWUVEKGdydVs/9tfbZEa4bmsU//urQzJ3qkKz5rGnsPANAFSah8Wen0DwUSC9Prep8lF1mRQUfA3gMAQHeGay4BAEB7QjwAAAAPxAMAAPBAPAAAAA/EAwAA8EA8AAAAD8QDAADwQDwAAAAPxAMAAPBAPAAAAA/EAwAA8EA8AAAAD8QDAADwQDwAAAAPxAMAAPBAPAAAAA/EAwAA8EA8AAAAD8QDAADwQDwAAAAPxAMAAPBAPAAAAA/EAwAA8EA8AAAAD8QDAADwQDwAAAAPxAMAAPBAPAAAAA/EAwAA8EA8AAAAD8QDAADwQDwAAAAPxAMAAPBAPAAAAA/EAwAA8EA8AAAAD8QDAADwQDwAAAAPxAMAAPBAPAAAAA/EAwAA8BBd6AGdTteZdQAAQJeCvQcAAOCBeAAAAB4iQj8SAACch3E6na6uAQAAuhx0LgEAAA/EAwAA8EA8AAAAD8QDAADwQDwAAAAPxAMAAPBAPAAAAA/EAwAA8EA8AAAAD8QDAADw+H9zn7n2h918tgAAAABJRU5ErkJggg==;" vertex="1" parent="4VvXFu-i0m53zg2MDVyg-22">
          <mxGeometry x="27.36" y="5" width="232.64" height="160" as="geometry" />
        </mxCell>
        <mxCell id="4VvXFu-i0m53zg2MDVyg-29" style="edgeStyle=orthogonalEdgeStyle;rounded=0;orthogonalLoop=1;jettySize=auto;html=1;exitX=1;exitY=0.5;exitDx=0;exitDy=0;entryX=0.5;entryY=0;entryDx=0;entryDy=0;" edge="1" parent="1" source="4VvXFu-i0m53zg2MDVyg-27" target="4VvXFu-i0m53zg2MDVyg-20">
          <mxGeometry relative="1" as="geometry" />
        </mxCell>
        <mxCell id="4VvXFu-i0m53zg2MDVyg-27" value="" style="rounded=0;whiteSpace=wrap;html=1;" vertex="1" parent="1">
          <mxGeometry x="-125" y="1160" width="170" height="60" as="geometry" />
        </mxCell>
        <mxCell id="4VvXFu-i0m53zg2MDVyg-28" value="Breadboard med 2 LED-dioder, som indikerar tilt." style="text;html=1;align=center;verticalAlign=middle;whiteSpace=wrap;rounded=0;" vertex="1" parent="1">
          <mxGeometry x="-120" y="1175" width="160" height="30" as="geometry" />
        </mxCell>
        <mxCell id="4VvXFu-i0m53zg2MDVyg-34" style="edgeStyle=orthogonalEdgeStyle;rounded=0;orthogonalLoop=1;jettySize=auto;html=1;exitX=0.5;exitY=1;exitDx=0;exitDy=0;" edge="1" parent="1" source="4VvXFu-i0m53zg2MDVyg-33">
          <mxGeometry relative="1" as="geometry">
            <mxPoint x="414" y="1390" as="targetPoint" />
          </mxGeometry>
        </mxCell>
        <mxCell id="4VvXFu-i0m53zg2MDVyg-33" value="" style="rounded=0;whiteSpace=wrap;html=1;" vertex="1" parent="1">
          <mxGeometry x="354" y="1140" width="120" height="60" as="geometry" />
        </mxCell>
        <mxCell id="4VvXFu-i0m53zg2MDVyg-35" value="API" style="text;html=1;align=center;verticalAlign=middle;whiteSpace=wrap;rounded=0;" vertex="1" parent="1">
          <mxGeometry x="384" y="1155" width="60" height="30" as="geometry" />
        </mxCell>
      </root>
    </mxGraphModel>
  </diagram>
</mxfile>
